<svg width="32" height="32" viewBox="0 0 32 32" fill="none" xmlns="http://www.w3.org/2000/svg">
  <rect width="32" height="32" rx="6" fill="#1e1b4b"/>
  <g transform="translate(8, 8)">
    <path d="M8 2C6.9 2 6 2.9 6 4C6 4.5 6.2 4.9 6.5 5.2C6.2 5.5 6 6 6 6.5C6 7.3 6.7 8 7.5 8H8.5C9.3 8 10 7.3 10 6.5C10 6 9.8 5.5 9.5 5.2C9.8 4.9 10 4.5 10 4C10 2.9 9.1 2 8 2Z M4 6C3.4 6 3 6.4 3 7C3 7.6 3.4 8 4 8C4.6 8 5 7.6 5 7C5 6.4 4.6 6 4 6Z M12 6C11.4 6 11 6.4 11 7C11 7.6 11.4 8 12 8C12.6 8 13 7.6 13 7C13 6.4 12.6 6 12 6Z M8 9C6.9 9 6 9.9 6 11C6 12.1 6.9 13 8 13C9.1 13 10 12.1 10 11C10 9.9 9.1 9 8 9Z" fill="#a5b4fc"/>
  </g>
</svg> 